<?xml version="1.0" encoding="iso-8859-1"?>
<!-- Generator: Adobe Illustrator 19.0.0, SVG Export Plug-In . SVG Version: 6.00 Build 0)  -->
<svg version="1.1" id="Layer_1" xmlns="http://www.w3.org/2000/svg" xmlns:xlink="http://www.w3.org/1999/xlink" x="0px" y="0px"
	 viewBox="0 0 512.001 512.001" style="enable-background:new 0 0 512.001 512.001;" xml:space="preserve">
<path style="fill:#1A534A;" d="M502.856,188.034c-11.36-41.407-33.296-80.519-65.829-113.052
	c-99.976-99.976-262.07-99.976-362.045,0s-99.976,262.07,0,362.045c32.533,32.533,71.646,54.468,113.052,65.829L502.856,188.034z"/>
<path style="fill:#263230;" d="M437.028,437.028c67.443-67.443,89.379-163.153,65.829-248.993l-89.44-89.44L98.594,413.415
	l89.44,89.44C273.875,526.407,369.584,504.47,437.028,437.028z"/>
<path style="fill:#C3C9C8;" d="M413.415,98.594l-94.447,47.223L98.594,413.415H177.3v-31.482h31.482v-31.482h31.482V318.97h31.482
	v-31.482l23.611-23.611l15.741,15.741l20.681-20.681c28.855,4.53,59.401-4.308,81.636-26.542
	C450.363,195.445,450.363,135.541,413.415,98.594z"/>
<path style="fill:#FFFFFF;" d="M279.616,98.594c-22.235,22.235-31.072,52.781-26.542,81.636l-20.681,20.681l15.741,15.741
	l-149.54,149.54v47.223L413.415,98.594C376.468,61.646,316.564,61.646,279.616,98.594z"/>
<path style="fill:#D8F4F2;" d="M295.357,114.335c-28.254,28.254-28.254,74.063,0,102.317l102.317-102.317
	C369.42,86.081,323.611,86.081,295.357,114.335z"/>
<path style="fill:#B0B7B6;" d="M397.674,114.335L295.357,216.652c28.254,28.254,74.063,28.254,102.317,0
	S425.928,142.589,397.674,114.335z"/>
<circle style="fill:#263230;" cx="366.198" cy="145.812" r="22.261"/>
<g>
</g>
<g>
</g>
<g>
</g>
<g>
</g>
<g>
</g>
<g>
</g>
<g>
</g>
<g>
</g>
<g>
</g>
<g>
</g>
<g>
</g>
<g>
</g>
<g>
</g>
<g>
</g>
<g>
</g>
</svg>
