<svg id="Capa_1" enable-background="new 0 0 512 512" height="512" viewBox="0 0 512 512" width="512" xmlns="http://www.w3.org/2000/svg"><g><path d="m346 181c-91.126 0-165 73.872-165 165 0 91.126 73.874 166 165 166s166-74.874 166-166c0-91.128-74.874-165-166-165z" fill="#ff6673"/><path d="m512 346c0-91.128-74.874-165-166-165v331c91.126 0 166-74.874 166-166z" fill="#e62e2e"/><path d="m166 0c-90.981 0-166 75.019-166 166s75.019 165 166 165 165-74.019 165-165-74.019-166-165-166z" fill="#ffdf40"/><path d="m331 166c0-90.981-74.019-166-165-166v331c90.981 0 165-74.019 165-165z" fill="#ffbe40"/><path d="m136 121h-30c-8.291 0-15-6.709-15-15s6.709-15 15-15h30c8.291 0 15 6.709 15 15s-6.709 15-15 15z" fill="#4d6699"/><path d="m226 121h-30c-8.291 0-15-6.709-15-15s6.709-15 15-15h30c8.291 0 15 6.709 15 15s-6.709 15-15 15z" fill="#404b80"/><path d="m316 331h-30c-8.291 0-15-6.709-15-15s6.709-15 15-15h30c8.291 0 15 6.709 15 15s-6.709 15-15 15z" fill="#4d6699"/><path d="m406 331h-30c-8.291 0-15-6.709-15-15s6.709-15 15-15h30c8.291 0 15 6.709 15 15s-6.709 15-15 15z" fill="#404b80"/><path d="m225.526 166h-59.526-69.078l-34.406 15c7.357 50.75 50.729 90 103.484 90s96.127-39.25 103.484-90z" fill="#ff6673"/><path d="m269.484 181-43.958-15h-59.526v105c52.755 0 96.127-39.25 103.484-90z" fill="#e62e2e"/><path d="m256 151h-90-90c-8.291 0-15 6.709-15 15 0 5.136.8 10.058 1.516 15h103.484 103.484c.716-4.942 1.516-9.864 1.516-15 0-8.291-6.709-15-15-15z" fill="#f9f4f3"/><path d="m271 166c0-8.291-6.709-15-15-15h-90v30h103.484c.716-4.942 1.516-9.864 1.516-15z" fill="#f0e6e1"/><path d="m424.193 395.98c-19.922-22.221-48.427-34.98-78.193-34.98s-58.271 12.759-78.193 34.98c-5.537 6.182-5.024 15.659 1.143 21.182 6.196 5.566 15.645 5.024 21.182-1.143 14.253-15.908 35.061-23.862 55.869-23.862s41.616 7.954 55.869 23.862c5.539 6.169 15.02 6.674 21.182 1.143 6.166-5.522 6.678-15 1.141-21.182z" fill="#4d6699"/><path d="m423.051 417.162c6.167-5.522 6.68-15 1.143-21.182-19.923-22.221-48.428-34.98-78.194-34.98v31.157c20.808 0 41.616 7.954 55.869 23.862 5.539 6.169 15.02 6.675 21.182 1.143z" fill="#404b80"/></g></svg>