<?xml version="1.0" encoding="iso-8859-1"?>
<!-- Generator: Adobe Illustrator 19.0.0, SVG Export Plug-In . SVG Version: 6.00 Build 0)  -->
<svg version="1.1" id="Layer_1" xmlns="http://www.w3.org/2000/svg" xmlns:xlink="http://www.w3.org/1999/xlink" x="0px" y="0px"
	 viewBox="0 0 512 512" style="enable-background:new 0 0 512 512;" xml:space="preserve">
<path style="fill:#FBD867;" d="M511.93,261.496c0.039-1.829,0.069-3.659,0.07-5.496C511.999,114.615,397.385,0,255.999,0
	C114.615,0,0,114.615,0,255.999c0,110.07,69.473,203.906,166.956,240.076L511.93,261.496z"/>
<path style="fill:#F9BE02;" d="M511.93,261.496L317.217,66.782l-22.261,189.217l7.16,6.96l-114.431,61.354l-20.729,171.763
	l66.782,14.949c7.338,0.631,14.759,0.974,22.261,0.974C395.547,511.999,509.004,400.342,511.93,261.496z"/>
<polygon style="fill:#D8F4F2;" points="439.651,322.782 339.478,303.701 239.304,322.782 239.304,189.217 339.478,208.298 
	439.651,189.217 "/>
<polygon style="fill:#B1EAE5;" points="239.304,322.782 339.478,236.919 439.651,322.782 339.478,333.912 "/>
<polygon style="fill:#FFFFFF;" points="239.304,189.217 339.478,275.08 439.651,189.217 "/>
<polygon style="fill:#616F6D;" points="461.912,345.043 339.478,345.043 317.217,322.782 461.912,322.782 "/>
<path style="fill:#394B48;" d="M200.347,505.914c10.887,2.413,22.033,4.132,33.391,5.111V311.651h-66.782L200.347,505.914z"/>
<path style="fill:#4C6460;" d="M166.956,496.076c10.804,4.009,21.955,7.303,33.391,9.838V311.651h-33.391V496.076z"/>
<polygon style="fill:#9CA5A3;" points="339.478,166.956 200.347,166.956 155.826,255.999 200.347,345.043 339.478,345.043 "/>
<polygon style="fill:#B0B7B6;" points="72.348,166.956 61.217,244.869 72.348,345.043 200.347,345.043 200.347,166.956 "/>
<g>
	<rect x="128" y="267.13" style="fill:#9CA5A3;" width="22.261" height="22.261"/>
	<rect x="94.609" y="300.521" style="fill:#9CA5A3;" width="22.261" height="22.261"/>
</g>
<rect x="50.087" y="166.956" style="fill:#889391;" width="22.261" height="178.087"/>
<polygon style="fill:#F85C67;" points="217.043,144.695 306.086,144.695 294.956,77.913 217.043,77.913 "/>
<polygon style="fill:#F63341;" points="294.956,244.869 306.086,255.999 317.217,244.869 317.217,66.782 294.956,66.782 "/>
<rect x="294.956" y="244.869" style="fill:#394B48;" width="22.261" height="22.261"/>
<g>
</g>
<g>
</g>
<g>
</g>
<g>
</g>
<g>
</g>
<g>
</g>
<g>
</g>
<g>
</g>
<g>
</g>
<g>
</g>
<g>
</g>
<g>
</g>
<g>
</g>
<g>
</g>
<g>
</g>
</svg>
