<svg id="Layer_1" enable-background="new 0 0 512 512" height="512" viewBox="0 0 512 512" width="512" xmlns="http://www.w3.org/2000/svg"><g><g><path d="m512 304.82v99.98c0 15.49-12.56 28.06-28.06 28.06h-136.13l-1.5-30.1-13.5-270.62h79.77c15.5 0 28.06 12.57 28.06 28.06v116.3h43.05c15.63 0 28.31 12.68 28.31 28.32z" fill="#eef0f5"/><path d="m512 304.82v99.98c0 15.49-12.56 28.06-28.06 28.06h-136.13l-1.5-30.1c8.38-.69 16.15-4.91 21.1-11.79 13.04-18.14 34.33-29.95 58.37-29.95 9.96 0 19.45 2.03 28.07 5.69 13.36 5.68 28.15-4.4 28.15-18.91v-42.98c0-15.64-12.68-28.32-28.31-28.32h30c15.63 0 28.31 12.68 28.31 28.32z" fill="#dae1ea"/><path d="m382.58 132.14h30c15.5 0 28.06 12.57 28.06 28.06v116.3h-30v-116.3c0-15.49-12.56-28.06-28.06-28.06z" fill="#dae1ea"/><path d="m347.81 104.26v273.71l-220.47-19.02-127.34-10.98v-243.71c0-15.03 12.18-27.21 27.21-27.21h293.39c15.03 0 27.21 12.18 27.21 27.21z" fill="#00c2f3"/><path d="m347.81 104.26v273.71l-220.47-19.02c9.44-5.66 15.95-16.03 15.95-28.14 0-13.8-8.71-26-21.67-30.77-57.85-21.29-99.12-76.89-99.12-142.13 0-29.74 8.57-57.47 23.38-80.86h274.72c15.03 0 27.21 12.18 27.21 27.21z" fill="#1e90ff"/><path d="m347.81 347.97v84.89h-320.6c-15.03 0-27.21-12.18-27.21-27.21v-57.68z" fill="#b9cfdf"/><path d="m440.64 161.95v114.55h-54.64c-2.96 0-5.36-2.4-5.36-5.36v-103.83c0-2.96 2.4-5.36 5.36-5.36z" fill="#00c2f3"/><path d="m512 315.48v30h-38.61c-8.28 0-15-6.71-15-15 0-4.14 1.68-7.89 4.4-10.61 2.71-2.71 6.46-4.39 10.6-4.39z" fill="#fbdf63"/><path d="m405.48 315.482h-17.34c-4.143 0-7.5 3.358-7.5 7.5s3.357 7.5 7.5 7.5h17.34c4.143 0 7.5-3.358 7.5-7.5s-3.358-7.5-7.5-7.5z" fill="#b9cfdf"/><path d="m410.64 161.95h30v114.55h-30z" fill="#1e90ff"/><path d="m482 315.48h30v30h-30z" fill="#f9d11f"/><path d="m347.81 347.97v84.89h-320.6c-15.03 0-27.21-12.18-27.21-27.21v-30c0 .95.05 1.88.14 2.8 1.64 15.98 21.87 21.56 32 9.1 13.18-16.19 33.26-26.53 55.76-26.53 5.43 0 10.72.6 15.81 1.74 2.4.54 4.78.8 7.12.8 11.45 0 21.83-6.17 27.63-15.59z" fill="#90abbd"/><g><path d="m425.78 388.683c-24.359 0-44.178 19.818-44.178 44.178s19.818 44.178 44.178 44.178 44.179-19.818 44.179-44.178-19.819-44.178-44.179-44.178z" fill="#56788b"/><path d="m132.08 432.86c0 24.36-19.82 44.18-44.18 44.18-5.26 0-10.31-.93-15-2.63-17-6.14-29.18-22.45-29.18-41.55s12.18-35.41 29.18-41.55c4.69-1.7 9.74-2.63 15-2.63 24.36 0 44.18 19.82 44.18 44.18z" fill="#56788b"/><g fill="#415e6f"><path d="m132.08 432.86c0 24.36-19.82 44.18-44.18 44.18-5.26 0-10.31-.93-15-2.63 17-6.14 29.18-22.45 29.18-41.55s-12.18-35.41-29.18-41.55c4.69-1.7 9.74-2.63 15-2.63 24.36 0 44.18 19.82 44.18 44.18z"/><path d="m469.958 432.86c0 24.36-19.82 44.18-44.18 44.18-5.26 0-10.31-.93-15-2.63 17-6.14 29.18-22.45 29.18-41.55s-12.18-35.41-29.18-41.55c4.69-1.7 9.74-2.63 15-2.63 24.36 0 44.18 19.82 44.18 44.18z"/></g></g></g><path d="m296.85 157.91c0 54.44-36.16 102.66-88.19 117.96l-29.45 29.45c-1.38 1.38-3.16 2.11-4.96 2.19-.12.01-.23.01-.35.01-1.91 0-3.83-.73-5.3-2.2l-29.45-29.45c-52.03-15.3-88.19-63.52-88.19-117.96 0-62.71 47.2-114.62 107.94-122.04 4.92-.6 9.92-.91 15-.91 67.8 0 122.95 55.16 122.95 122.95z" fill="#ed2061"/><path d="m296.85 157.91c0 54.44-36.16 102.66-88.19 117.96l-29.45 29.45c-1.38 1.38-3.16 2.11-4.96 2.19l4.41-31.64c52.03-15.3 88.19-63.52 88.19-117.96 0-62.71-47.2-114.62-107.95-122.04 4.92-.6 9.92-.91 15-.91 67.8 0 122.95 55.16 122.95 122.95z" fill="#c71e54"/><path d="m244.37 157.91c0 38.85-31.61 70.47-70.47 70.47-5.14 0-10.16-.55-14.99-1.62-31.67-6.88-55.47-35.14-55.47-68.85 0-33.72 23.8-61.98 55.47-68.86 4.83-1.06 9.85-1.61 14.99-1.61 38.86 0 70.47 31.61 70.47 70.47z" fill="#eef0f5"/><path d="m244.37 157.91c0 38.85-31.61 70.47-70.47 70.47-5.14 0-10.16-.55-14.99-1.62 31.67-6.89 55.46-35.15 55.46-68.85 0-33.71-23.79-61.97-55.46-68.86 4.83-1.06 9.85-1.61 14.99-1.61 38.86 0 70.47 31.61 70.47 70.47z" fill="#dae1ea"/></g></svg>