<?xml version="1.0" encoding="iso-8859-1"?>
<!-- Generator: Adobe Illustrator 19.0.0, SVG Export Plug-In . SVG Version: 6.00 Build 0)  -->
<svg version="1.1" id="Capa_1" xmlns="http://www.w3.org/2000/svg" xmlns:xlink="http://www.w3.org/1999/xlink" x="0px" y="0px"
	 viewBox="0 0 512 512" style="enable-background:new 0 0 512 512;" xml:space="preserve">
<path style="fill:#415A87;" d="M50.167,408.221C18.649,365.673,0,313.017,0,256C0,114.615,114.615,0,256,0s256,114.615,256,256
	c0,57.017-18.649,109.673-50.167,152.221c-0.84-4.673-4.918-8.221-9.833-8.221H60C55.085,400,51.007,403.548,50.167,408.221z"/>
<path style="fill:#F2C230;" d="M256,512c-84.47,0-159.374-40.919-206-104.008V320c0-5.523,4.477-10,10-10h392
	c5.523,0,10,4.477,10,10v87.992C415.374,471.081,340.47,512,256,512z"/>
<path style="fill:#FFD7AA;" d="M384,0h60c19.33,0,35,15.67,35,35v75c0,11.046-8.954,20-20,20h-75c-19.33,0-35-15.67-35-35V35
	C349,15.67,364.67,0,384,0z"/>
<path style="fill:#FFEBDC;" d="M419,35v395H115V35c0-19.33,15.67-35,35-35h304C434.67,0,419,15.67,419,35z"/>
<path style="fill:#FFE1C3;" d="M134,35v395h-34V35c0-19.33,15.67-35,35-35h34C149.67,0,134,15.67,134,35z"/>
<path style="fill:#FF4B6E;" d="M381.998,240H95c-2.761,0-5-2.239-5-5V105c0-2.761,2.239-5,5-5h286.998c2.761,0,5,2.239,5,5v130
	C386.998,237.761,384.76,240,381.998,240z"/>
<path style="fill:#FFD7AA;" d="M362,275v10c0,2.761-2.239,5-5,5H155c-2.761,0-5-2.239-5-5v-10c0-2.761,2.239-5,5-5h202
	C359.761,270,362,272.239,362,275z M337,310H175c-2.761,0-5,2.239-5,5v10c0,2.761,2.239,5,5,5h162c2.761,0,5-2.239,5-5v-10
	C342,312.239,339.761,310,337,310z M175,70h162c2.761,0,5-2.239,5-5V55c0-2.761-2.239-5-5-5H175c-2.761,0-5,2.239-5,5v10
	C170,67.761,172.239,70,175,70z"/>
<path style="fill:#FF9B69;" d="M292,365v10c0,2.761-2.239,5-5,5h-62c-2.761,0-5-2.239-5-5v-10c0-2.761,2.239-5,5-5h62
	C289.761,360,292,362.239,292,365z"/>
<path style="fill:#DC325F;" d="M265,145v10c0,2.761-2.239,5-5,5H145c-2.761,0-5-2.239-5-5v-10c0-2.761,2.239-5,5-5h115
	C262.761,140,265,142.239,265,145z M240,180h-75c-2.761,0-5,2.239-5,5v10c0,2.761,2.239,5,5,5h75c2.761,0,5-2.239,5-5v-10
	C245,182.239,242.761,180,240,180z"/>
<path style="fill:#F7D139;" d="M450,170c0,41.421-33.579,75-75,75s-75-33.579-75-75s33.579-75,75-75S450,128.579,450,170z"/>
<path style="fill:#F0FAA0;" d="M412.495,146.779l-37.531,37.53l-23.186,23.186c-2.812,2.812-7.386,2.812-10.197,0l-4.077-4.077
	c-2.812-2.812-2.812-7.386,0-10.197l23.186-23.186l37.53-37.53c2.812-2.812,7.386-2.812,10.197,0l4.077,4.077
	C415.307,139.394,415.307,143.968,412.495,146.779z M347.25,154.5c6.766,0,12.25-5.484,12.25-12.25S354.016,130,347.25,130
	S335,135.484,335,142.25S340.484,154.5,347.25,154.5z M402.75,185.5c-6.766,0-12.25,5.484-12.25,12.25S395.984,210,402.75,210
	S415,204.516,415,197.75S409.516,185.5,402.75,185.5z"/>
<path style="fill:#FFEB50;" d="M462,407.992C415.374,471.081,340.47,512,256,512S96.626,471.081,50,407.992v-74.244l198.143,84.644
	c5.019,2.144,10.695,2.144,15.714,0L462,333.748V407.992z"/>
<path style="fill:#FFE13C;" d="M83,444.676c-12.133-11.133-23.194-23.415-33-36.683v-74.244l33,14.097V444.676z"/>
<g>
</g>
<g>
</g>
<g>
</g>
<g>
</g>
<g>
</g>
<g>
</g>
<g>
</g>
<g>
</g>
<g>
</g>
<g>
</g>
<g>
</g>
<g>
</g>
<g>
</g>
<g>
</g>
<g>
</g>
</svg>
